<mxfile host="app.diagrams.net" modified="2024-04-11T09:09:39.602Z" agent="Mozilla/5.0 (Windows NT 10.0; Win64; x64) AppleWebKit/537.36 (KHTML, like Gecko) Chrome/123.0.0.0 Safari/537.36 Edg/123.0.0.0" etag="nIz-N0bPWh4wWthcN5lO" version="24.2.3" type="github">
  <diagram name="Page-1" id="pJA5X316QIvQ61P7EP2Y">
    <mxGraphModel dx="1709" dy="713" grid="1" gridSize="10" guides="1" tooltips="1" connect="1" arrows="1" fold="1" page="1" pageScale="1" pageWidth="850" pageHeight="1100" math="0" shadow="0">
      <root>
        <mxCell id="0" />
        <mxCell id="1" parent="0" />
        <mxCell id="qiw6p_8ZHaiahR2XLSt--1" value="&lt;font style=&quot;font-size: 18px;&quot;&gt;User&lt;/font&gt;" style="shape=umlActor;verticalLabelPosition=bottom;verticalAlign=top;html=1;outlineConnect=0;" vertex="1" parent="1">
          <mxGeometry x="10" y="340" width="30" height="60" as="geometry" />
        </mxCell>
        <mxCell id="qiw6p_8ZHaiahR2XLSt--4" value="&lt;font style=&quot;font-size: 18px;&quot;&gt;Job Seeker&lt;/font&gt;" style="ellipse;whiteSpace=wrap;html=1;" vertex="1" parent="1">
          <mxGeometry x="360" y="280" width="120" height="80" as="geometry" />
        </mxCell>
        <mxCell id="qiw6p_8ZHaiahR2XLSt--5" value="&lt;font style=&quot;font-size: 18px;&quot;&gt;Employee&lt;/font&gt;" style="ellipse;whiteSpace=wrap;html=1;" vertex="1" parent="1">
          <mxGeometry x="360" y="410" width="120" height="80" as="geometry" />
        </mxCell>
        <mxCell id="qiw6p_8ZHaiahR2XLSt--6" value="&lt;font style=&quot;font-size: 18px;&quot;&gt;Job&lt;/font&gt;" style="ellipse;whiteSpace=wrap;html=1;" vertex="1" parent="1">
          <mxGeometry x="360" y="520" width="120" height="80" as="geometry" />
        </mxCell>
        <mxCell id="qiw6p_8ZHaiahR2XLSt--7" value="&lt;font style=&quot;font-size: 18px;&quot;&gt;Company Name&lt;/font&gt;" style="ellipse;whiteSpace=wrap;html=1;" vertex="1" parent="1">
          <mxGeometry x="360" y="650" width="120" height="80" as="geometry" />
        </mxCell>
        <mxCell id="qiw6p_8ZHaiahR2XLSt--8" value="&lt;font style=&quot;font-size: 18px;&quot;&gt;Server&lt;/font&gt;" style="shape=umlActor;verticalLabelPosition=bottom;verticalAlign=top;html=1;outlineConnect=0;" vertex="1" parent="1">
          <mxGeometry x="800" y="320" width="30" height="60" as="geometry" />
        </mxCell>
        <mxCell id="qiw6p_8ZHaiahR2XLSt--9" value="" style="endArrow=none;html=1;rounded=0;exitX=1;exitY=0.3333333333333333;exitDx=0;exitDy=0;exitPerimeter=0;entryX=0;entryY=0.5;entryDx=0;entryDy=0;" edge="1" parent="1" source="qiw6p_8ZHaiahR2XLSt--1" target="qiw6p_8ZHaiahR2XLSt--24">
          <mxGeometry width="50" height="50" relative="1" as="geometry">
            <mxPoint x="390" y="260" as="sourcePoint" />
            <mxPoint x="440" y="210" as="targetPoint" />
          </mxGeometry>
        </mxCell>
        <mxCell id="qiw6p_8ZHaiahR2XLSt--10" value="" style="endArrow=none;html=1;rounded=0;exitX=1;exitY=0.3333333333333333;exitDx=0;exitDy=0;exitPerimeter=0;entryX=0;entryY=0.5;entryDx=0;entryDy=0;" edge="1" parent="1" source="qiw6p_8ZHaiahR2XLSt--1" target="qiw6p_8ZHaiahR2XLSt--2">
          <mxGeometry width="50" height="50" relative="1" as="geometry">
            <mxPoint x="390" y="260" as="sourcePoint" />
            <mxPoint x="440" y="210" as="targetPoint" />
          </mxGeometry>
        </mxCell>
        <mxCell id="qiw6p_8ZHaiahR2XLSt--11" value="" style="endArrow=none;html=1;rounded=0;entryX=0;entryY=0;entryDx=0;entryDy=0;exitX=1;exitY=0.3333333333333333;exitDx=0;exitDy=0;exitPerimeter=0;" edge="1" parent="1" source="qiw6p_8ZHaiahR2XLSt--1" target="qiw6p_8ZHaiahR2XLSt--3">
          <mxGeometry width="50" height="50" relative="1" as="geometry">
            <mxPoint x="-90" y="360" as="sourcePoint" />
            <mxPoint x="440" y="500" as="targetPoint" />
          </mxGeometry>
        </mxCell>
        <mxCell id="qiw6p_8ZHaiahR2XLSt--12" value="" style="endArrow=none;html=1;rounded=0;exitX=1;exitY=0;exitDx=0;exitDy=0;entryX=0;entryY=0.5;entryDx=0;entryDy=0;" edge="1" parent="1" source="qiw6p_8ZHaiahR2XLSt--2" target="qiw6p_8ZHaiahR2XLSt--4">
          <mxGeometry width="50" height="50" relative="1" as="geometry">
            <mxPoint x="390" y="280" as="sourcePoint" />
            <mxPoint x="440" y="230" as="targetPoint" />
          </mxGeometry>
        </mxCell>
        <mxCell id="qiw6p_8ZHaiahR2XLSt--13" value="" style="endArrow=none;html=1;rounded=0;exitX=1;exitY=1;exitDx=0;exitDy=0;entryX=0;entryY=0.5;entryDx=0;entryDy=0;" edge="1" parent="1" source="qiw6p_8ZHaiahR2XLSt--2" target="qiw6p_8ZHaiahR2XLSt--5">
          <mxGeometry width="50" height="50" relative="1" as="geometry">
            <mxPoint x="390" y="460" as="sourcePoint" />
            <mxPoint x="440" y="410" as="targetPoint" />
          </mxGeometry>
        </mxCell>
        <mxCell id="qiw6p_8ZHaiahR2XLSt--14" value="" style="endArrow=none;html=1;rounded=0;exitX=1;exitY=0;exitDx=0;exitDy=0;entryX=0;entryY=0.5;entryDx=0;entryDy=0;" edge="1" parent="1" source="qiw6p_8ZHaiahR2XLSt--3" target="qiw6p_8ZHaiahR2XLSt--6">
          <mxGeometry width="50" height="50" relative="1" as="geometry">
            <mxPoint x="390" y="490" as="sourcePoint" />
            <mxPoint x="440" y="440" as="targetPoint" />
          </mxGeometry>
        </mxCell>
        <mxCell id="qiw6p_8ZHaiahR2XLSt--15" value="" style="endArrow=none;html=1;rounded=0;exitX=1;exitY=1;exitDx=0;exitDy=0;entryX=0;entryY=0.5;entryDx=0;entryDy=0;" edge="1" parent="1" source="qiw6p_8ZHaiahR2XLSt--3" target="qiw6p_8ZHaiahR2XLSt--7">
          <mxGeometry width="50" height="50" relative="1" as="geometry">
            <mxPoint x="390" y="490" as="sourcePoint" />
            <mxPoint x="440" y="440" as="targetPoint" />
          </mxGeometry>
        </mxCell>
        <mxCell id="qiw6p_8ZHaiahR2XLSt--16" value="&lt;font style=&quot;font-size: 14px;&quot;&gt;&amp;lt;&amp;lt;include&amp;gt;&amp;gt;&lt;/font&gt;" style="html=1;verticalAlign=bottom;endArrow=open;dashed=1;endSize=8;curved=0;rounded=0;entryX=1;entryY=0.5;entryDx=0;entryDy=0;exitX=0.005;exitY=0.659;exitDx=0;exitDy=0;exitPerimeter=0;" edge="1" parent="1" source="qiw6p_8ZHaiahR2XLSt--21" target="qiw6p_8ZHaiahR2XLSt--7">
          <mxGeometry relative="1" as="geometry">
            <mxPoint x="450" y="460" as="sourcePoint" />
            <mxPoint x="370" y="460" as="targetPoint" />
          </mxGeometry>
        </mxCell>
        <mxCell id="qiw6p_8ZHaiahR2XLSt--17" value="&lt;font style=&quot;font-size: 14px;&quot;&gt;&amp;lt;&amp;lt;include&amp;gt;&amp;gt;&lt;/font&gt;" style="html=1;verticalAlign=bottom;endArrow=open;dashed=1;endSize=8;curved=0;rounded=0;entryX=1;entryY=0.5;entryDx=0;entryDy=0;exitX=0;exitY=0.5;exitDx=0;exitDy=0;" edge="1" parent="1" source="qiw6p_8ZHaiahR2XLSt--21" target="qiw6p_8ZHaiahR2XLSt--6">
          <mxGeometry relative="1" as="geometry">
            <mxPoint x="591" y="643" as="sourcePoint" />
            <mxPoint x="490" y="700" as="targetPoint" />
          </mxGeometry>
        </mxCell>
        <mxCell id="qiw6p_8ZHaiahR2XLSt--18" value="&lt;font style=&quot;font-size: 14px;&quot;&gt;&amp;lt;&amp;lt;include&amp;gt;&amp;gt;&lt;/font&gt;" style="html=1;verticalAlign=bottom;endArrow=open;dashed=1;endSize=8;curved=0;rounded=0;entryX=1;entryY=0.5;entryDx=0;entryDy=0;exitX=0;exitY=0.5;exitDx=0;exitDy=0;" edge="1" parent="1" source="qiw6p_8ZHaiahR2XLSt--22" target="qiw6p_8ZHaiahR2XLSt--4">
          <mxGeometry relative="1" as="geometry">
            <mxPoint x="601" y="653" as="sourcePoint" />
            <mxPoint x="500" y="710" as="targetPoint" />
          </mxGeometry>
        </mxCell>
        <mxCell id="qiw6p_8ZHaiahR2XLSt--19" value="&lt;font style=&quot;font-size: 14px;&quot;&gt;&amp;lt;&amp;lt;include&amp;gt;&amp;gt;&lt;/font&gt;" style="html=1;verticalAlign=bottom;endArrow=open;dashed=1;endSize=8;curved=0;rounded=0;entryX=1;entryY=0.5;entryDx=0;entryDy=0;exitX=0;exitY=0;exitDx=0;exitDy=0;" edge="1" parent="1" source="qiw6p_8ZHaiahR2XLSt--21" target="qiw6p_8ZHaiahR2XLSt--5">
          <mxGeometry relative="1" as="geometry">
            <mxPoint x="611" y="663" as="sourcePoint" />
            <mxPoint x="510" y="720" as="targetPoint" />
          </mxGeometry>
        </mxCell>
        <mxCell id="qiw6p_8ZHaiahR2XLSt--20" value="" style="swimlane;startSize=0;" vertex="1" parent="1">
          <mxGeometry x="80" y="110" width="660" height="660" as="geometry" />
        </mxCell>
        <mxCell id="qiw6p_8ZHaiahR2XLSt--21" value="&lt;font style=&quot;font-size: 18px;&quot;&gt;Skills&lt;/font&gt;" style="ellipse;whiteSpace=wrap;html=1;" vertex="1" parent="qiw6p_8ZHaiahR2XLSt--20">
          <mxGeometry x="520" y="510" width="120" height="80" as="geometry" />
        </mxCell>
        <mxCell id="qiw6p_8ZHaiahR2XLSt--22" value="&lt;font style=&quot;font-size: 18px;&quot;&gt;Experience&lt;/font&gt;" style="ellipse;whiteSpace=wrap;html=1;" vertex="1" parent="qiw6p_8ZHaiahR2XLSt--20">
          <mxGeometry x="490" y="200" width="120" height="80" as="geometry" />
        </mxCell>
        <mxCell id="qiw6p_8ZHaiahR2XLSt--23" value="&lt;font style=&quot;font-size: 18px;&quot;&gt;User&#39;s Profile&lt;/font&gt;" style="ellipse;whiteSpace=wrap;html=1;" vertex="1" parent="qiw6p_8ZHaiahR2XLSt--20">
          <mxGeometry x="533" y="40" width="120" height="80" as="geometry" />
        </mxCell>
        <mxCell id="qiw6p_8ZHaiahR2XLSt--24" value="&lt;font style=&quot;font-size: 18px;&quot;&gt;login&lt;/font&gt;" style="ellipse;whiteSpace=wrap;html=1;" vertex="1" parent="qiw6p_8ZHaiahR2XLSt--20">
          <mxGeometry x="170" y="40" width="120" height="80" as="geometry" />
        </mxCell>
        <mxCell id="qiw6p_8ZHaiahR2XLSt--25" value="&lt;font style=&quot;font-size: 14px;&quot;&gt;&amp;lt;&amp;lt;extend&amp;gt;&amp;gt;&lt;/font&gt;" style="html=1;verticalAlign=bottom;endArrow=open;dashed=1;endSize=8;curved=0;rounded=0;entryX=1;entryY=0.5;entryDx=0;entryDy=0;exitX=0;exitY=0.5;exitDx=0;exitDy=0;" edge="1" parent="qiw6p_8ZHaiahR2XLSt--20" source="qiw6p_8ZHaiahR2XLSt--23" target="qiw6p_8ZHaiahR2XLSt--24">
          <mxGeometry relative="1" as="geometry">
            <mxPoint x="110" y="170" as="sourcePoint" />
            <mxPoint x="150" y="190" as="targetPoint" />
          </mxGeometry>
        </mxCell>
        <mxCell id="qiw6p_8ZHaiahR2XLSt--26" value="&lt;font style=&quot;font-size: 18px;&quot;&gt;GlassDoor&lt;/font&gt;" style="text;html=1;align=center;verticalAlign=middle;resizable=0;points=[];autosize=1;strokeColor=none;fillColor=none;" vertex="1" parent="qiw6p_8ZHaiahR2XLSt--20">
          <mxGeometry x="550" y="626" width="103" height="34" as="geometry" />
        </mxCell>
        <mxCell id="qiw6p_8ZHaiahR2XLSt--2" value="&lt;font style=&quot;font-size: 18px;&quot;&gt;User Registraion&lt;/font&gt;" style="ellipse;whiteSpace=wrap;html=1;" vertex="1" parent="qiw6p_8ZHaiahR2XLSt--20">
          <mxGeometry x="30" y="240" width="120" height="80" as="geometry" />
        </mxCell>
        <mxCell id="qiw6p_8ZHaiahR2XLSt--3" value="&lt;font style=&quot;font-size: 18px;&quot;&gt;Search&lt;/font&gt;" style="ellipse;whiteSpace=wrap;html=1;" vertex="1" parent="qiw6p_8ZHaiahR2XLSt--20">
          <mxGeometry x="30" y="430" width="120" height="80" as="geometry" />
        </mxCell>
        <mxCell id="qiw6p_8ZHaiahR2XLSt--27" value="" style="endArrow=none;html=1;rounded=0;exitX=1.013;exitY=0.604;exitDx=0;exitDy=0;exitPerimeter=0;entryX=0;entryY=0.3333333333333333;entryDx=0;entryDy=0;entryPerimeter=0;" edge="1" parent="1" target="qiw6p_8ZHaiahR2XLSt--8" source="qiw6p_8ZHaiahR2XLSt--24">
          <mxGeometry width="50" height="50" relative="1" as="geometry">
            <mxPoint x="330" y="170" as="sourcePoint" />
            <mxPoint x="800" y="350" as="targetPoint" />
          </mxGeometry>
        </mxCell>
        <mxCell id="qiw6p_8ZHaiahR2XLSt--28" value="" style="endArrow=none;html=1;rounded=0;exitX=1;exitY=0.5;exitDx=0;exitDy=0;" edge="1" parent="1" source="qiw6p_8ZHaiahR2XLSt--7">
          <mxGeometry width="50" height="50" relative="1" as="geometry">
            <mxPoint x="670" y="570" as="sourcePoint" />
            <mxPoint x="800" y="340" as="targetPoint" />
          </mxGeometry>
        </mxCell>
        <mxCell id="qiw6p_8ZHaiahR2XLSt--29" value="" style="endArrow=none;html=1;rounded=0;" edge="1" parent="1">
          <mxGeometry width="50" height="50" relative="1" as="geometry">
            <mxPoint x="480" y="550" as="sourcePoint" />
            <mxPoint x="800" y="340" as="targetPoint" />
          </mxGeometry>
        </mxCell>
        <mxCell id="qiw6p_8ZHaiahR2XLSt--30" value="" style="endArrow=none;html=1;rounded=0;exitX=1;exitY=0.5;exitDx=0;exitDy=0;entryX=0;entryY=0.3333333333333333;entryDx=0;entryDy=0;entryPerimeter=0;" edge="1" parent="1" source="qiw6p_8ZHaiahR2XLSt--5" target="qiw6p_8ZHaiahR2XLSt--8">
          <mxGeometry width="50" height="50" relative="1" as="geometry">
            <mxPoint x="620" y="580" as="sourcePoint" />
            <mxPoint x="800" y="350" as="targetPoint" />
          </mxGeometry>
        </mxCell>
        <mxCell id="qiw6p_8ZHaiahR2XLSt--31" value="" style="endArrow=classic;html=1;rounded=0;entryX=0.5;entryY=0;entryDx=0;entryDy=0;exitX=0.5;exitY=1;exitDx=0;exitDy=0;" edge="1" parent="1" source="qiw6p_8ZHaiahR2XLSt--4" target="qiw6p_8ZHaiahR2XLSt--5">
          <mxGeometry width="50" height="50" relative="1" as="geometry">
            <mxPoint x="620" y="580" as="sourcePoint" />
            <mxPoint x="670" y="530" as="targetPoint" />
          </mxGeometry>
        </mxCell>
        <mxCell id="qiw6p_8ZHaiahR2XLSt--33" value="Nikhil Kumar Singh" style="text;html=1;align=center;verticalAlign=middle;whiteSpace=wrap;rounded=0;" vertex="1" parent="1">
          <mxGeometry x="700" y="1060" width="110" height="30" as="geometry" />
        </mxCell>
      </root>
    </mxGraphModel>
  </diagram>
</mxfile>
